PathFileType	4	(X/Y/Z)	pose_F01_0-95.trc
DataRate	CameraRate	NumFrames	NumMarkers	Units	OrigDataRate	OrigDataStartFrame	OrigNumFrames
30	30	6	21	m	30	35	95
Frame#	Time	CHip			RHip			RKnee			RAnkle			RBigToe			RSmallToe			RHeel			LHip			LKnee			LAnkle			LBigToe			LSmallToe			LHeel			Neck			Nose			RShoulder			RElbow			RWrist			LShoulder			LElbow			LWrist			
		X1	Y1	Z1	X2	Y2	Z2	X3	Y3	Z3	X4	Y4	Z4	X5	Y5	Z5	X6	Y6	Z6	X7	Y7	Z7	X8	Y8	Z8	X9	Y9	Z9	X10	Y10	Z10	X11	Y11	Z11	X12	Y12	Z12	X13	Y13	Z13	X14	Y14	Z14	X15	Y15	Z15	X16	Y16	Z16	X17	Y17	Z17	X18	Y18	Z18	X19	Y19	Z19	X20	Y20	Z20	X21	Y21	Z21	
35	1.1666666666666667	-0.2822791797256833	1.8404908808084044	-0.5356259360813596	-0.2941837265881934	1.8356126039145992	-0.47834889733804686	-0.2955272833046523	1.6995836670105637	-0.4677834462047605	-0.30982739501570045	1.6231848867688752	-0.4760906164148492	-0.3179318790989927	1.61906448484189	-0.4849062045933865	-0.31378184120346925	1.5944462394995749	-0.4312923517238962	-0.31405608951646835	1.6192962823516717	-0.49379753601222637	-0.2669727829881956	1.8421929646536193	-0.6031313638878908	-0.25506005512243024	1.6892632147229856	-0.5366995021492852	-0.2736298065109827	1.604187911592623	-0.5799251259139067							-0.2789925859918904	1.5950579503936537	-0.5865582203096451	-0.28294143131990307	1.9925186997205706	-0.5687881932358908	-0.26905729228562963	2.0556194800289904	-0.5492765327701085	-0.30309586300505187	1.98888541553749	-0.47928076587520235	-0.3115675665020987	1.9033622587301005	-0.4367561341964868	-0.3096139125920748	1.827604410081433	-0.40729595638529537	-0.26023902722957043	1.9952941174797731	-0.6584189886450401	-1.293342078445021	1.8188121423070462	0.3653401366280648	-0.24358400134619373	1.8375511062690113	-0.6768299783070737
36	1.2	-0.2810930891037865	1.8382995085201264	-0.540753792350373	-0.29201753831975613	1.8334943218530109	-0.4803769716091621	-0.2955272833046523	1.6995836670105637	-0.4677834462047605	-0.30982739501570045	1.6231848867688752	-0.4760906164148492	-0.3179318790989927	1.61906448484189	-0.4849062045933865	-0.31378184120346925	1.5944462394995749	-0.4312923517238962	-0.31405608951646835	1.6192962823516717	-0.49379753601222637	-0.26678094553698767	1.840065879769085	-0.6031843923045483	-0.25506005512243024	1.6892632147229856	-0.5366995021492852	-0.2736298065109827	1.604187911592623	-0.5799251259139067							-0.2789925859918904	1.5950579503936537	-0.5865582203096451	-0.28196896256693343	1.9924064456624462	-0.5657987742504325	-0.2690066098884063	2.0555430797812932	-0.5492539383395411	-0.3030152538270589	1.9890155055661272	-0.4791044091591038	-0.3103915752158883	1.9020175273349154	-0.43336927233579253	-0.3102105945763794	1.8289066689952627	-0.4020977774012483	-0.25934476440721316	1.9950854242954088	-0.6555188275424096	-0.25281879527012957	1.9115154543083954	-0.6822255322581546	-0.24556816521888578	1.8361970128027123	-0.6746311212331896
37	1.2333333333333334	-0.280880144904589	1.8356013878879924	-0.5405418918764224	-0.29402310365766127	1.8305973533445001	-0.47796376102814825	-0.2955272833046523	1.6995836670105637	-0.4677834462047605	-0.30982739501570045	1.6231848867688752	-0.4760906164148492	-0.3179318790989927	1.61906448484189	-0.4849062045933865	-0.31378184120346925	1.5944462394995749	-0.4312923517238962	-0.31405608951646835	1.6192962823516717	-0.49379753601222637	-0.2665140811455127	1.8374605268513355	-0.6030455768504392	-0.25506005512243024	1.6892632147229856	-0.5366995021492852	-0.2736298065109827	1.604187911592623	-0.5799251259139067							-0.2789925859918904	1.5950579503936537	-0.5865582203096451	-0.2819094753028638	1.992434835305575	-0.5657524116115	-0.26803333607317364	2.0554931915126304	-0.5462732694429412	-0.302104515004919	1.9863604034342488	-0.4756585714202527	-0.3104946792447611	1.8990680906026898	-0.4329403806271621	-0.30917011618638823	1.8261232399254466	-0.3985209903701657	-0.2571726384710064	1.9952701203969831	-0.6576387796856703	-0.2517875494301178	1.9101435724569624	-0.6790454055156535	-0.2425849956836617	1.8333414440257996	-0.6734754176549466
38	1.2666666666666666	-0.2809737423879726	1.8368684436962857	-0.5406599159660094	-0.2939627453726823	1.8328906968806642	-0.4783257295972255	-0.2955272833046523	1.6995836670105637	-0.4677834462047605	-0.30982739501570045	1.6231848867688752	-0.4760906164148492	-0.3179318790989927	1.61906448484189	-0.4849062045933865	-0.31378184120346925	1.5944462394995749	-0.4312923517238962	-0.31405608951646835	1.6192962823516717	-0.49379753601222637	-0.26460492942457176	1.8391629483793046	-0.6051976115834922	-0.25506005512243024	1.6892632147229856	-0.5366995021492852	-0.2736298065109827	1.604187911592623	-0.5799251259139067							-0.2789925859918904	1.5950579503936537	-0.5865582203096451	-0.2818193153624073	1.9925679137181287	-0.5657116405409072	-0.2650881904261068	2.0566360873460536	-0.5456195378173467	-0.30194592505129103	1.9877023158465885	-0.47563245448064567	-0.31053633533210323	1.900797511783275	-0.43326620033264224	-0.3107436918445655	1.8285710143392313	-0.4105495302462923	-0.25416677124507175	1.9952219973711243	-0.6567755871559539	-0.25179139219063956	1.9100982060925236	-0.6790632493537266	-0.2436505088380627	1.8318230407010117	-0.6763427829192983
39	1.3	-0.2813192183038641	1.8350889913450539	-0.540419834281846	-0.292354458353845	1.8315119822811248	-0.4801215148423239	-0.2955272833046523	1.6995836670105637	-0.4677834462047605	-0.30982739501570045	1.6231848867688752	-0.4760906164148492	-0.3179318790989927	1.61906448484189	-0.4849062045933865	-0.31378184120346925	1.5944462394995749	-0.4312923517238962	-0.31405608951646835	1.6192962823516717	-0.49379753601222637	-0.26497059568057074	1.839909397159062	-0.6052205855600223	-0.25506005512243024	1.6892632147229856	-0.5366995021492852	-0.2736298065109827	1.604187911592623	-0.5799251259139067							-0.2789925859918904	1.5950579503936537	-0.5865582203096451	-0.277848934736841	1.9911264231551014	-0.561185355719575	-0.26399544073390785	2.0575606081055087	-0.5424055916689495	-0.29966639937103257	1.9861059423978742	-0.46882139696245656	-0.30864111545532474	1.9005415012406137	-0.43547000500936556	-0.3098594626391998	1.8304134008872608	-0.4165296474467668	-0.2541058345050927	1.995154376792958	-0.656681490975573	-0.25155850888502534	1.9115474242104333	-0.6876249378323063	-0.24504405765046777	1.835380459848644	-0.6713435234656515
40	1.3333333333333333	-0.2806763208318136	1.826612547673938	-0.5391397391707551	-0.2930995171163073	1.8283234808501914	-0.4830294669654751	-0.2955272833046523	1.6995836670105637	-0.4677834462047605	-0.30982739501570045	1.6231848867688752	-0.4760906164148492	-0.3179318790989927	1.61906448484189	-0.4849062045933865	-0.31378184120346925	1.5944462394995749	-0.4312923517238962	-0.31405608951646835	1.6192962823516717	-0.49379753601222637	-0.2654485001819947	1.835402193679882	-0.6080802428049257	-0.25506005512243024	1.6892632147229856	-0.5366995021492852	-0.2736298065109827	1.604187911592623	-0.5799251259139067							-0.2789925859918904	1.5950579503936537	-0.5865582203096451	-0.27662131046679767	1.9870889636738733	-0.5570175395766876	-0.2619172356594724	2.0569069785904532	-0.535725381828063	-0.29658500938367316	1.9833493681126186	-0.4669599622123572	-0.3122760753198328	1.9022325574104644	-0.4397564866282602	-0.3091081887508849	1.832051158399751	-0.4220590146220328	-0.2508378538062405	1.991541111090544	-0.6547274961539453	-1.2682093124348486	1.8115692321888706	0.3283856987037587	-0.2481509979287655	1.8355912193628474	-0.663809162751459
